<?xml version="1.0" encoding="UTF-8"?>
<svg id="Layer_1" data-name="Layer 1" xmlns="http://www.w3.org/2000/svg" xmlns:xlink="http://www.w3.org/1999/xlink" version="1.1" viewBox="0 0 265 265">
  <defs>
    <style>
      .cls-1 {
        clip-path: url(#clippath);
      }

      .cls-2 {
        fill: none;
      }

      .cls-2, .cls-3 {
        stroke-width: 0px;
      }

      .cls-3 {
        fill: #ef4581;
      }
    </style>
    <clipPath id="clippath">
      <rect class="cls-2" width="265" height="265"/>
    </clipPath>
  </defs>
  <g class="cls-1">
    <g>
      <path class="cls-3" d="M264.7,77.9c-.6-14.1-2.9-23.8-6.2-32.1-3.4-8.9-8.5-16.9-15.3-23.5-6.6-6.7-14.7-12-23.5-15.3-8.4-3.3-18.1-5.5-32.1-6.2C173.4.1,168.9,0,132.9,0s-40.5.2-54.6.8c-14.1.6-23.8,2.9-32.1,6.2-8.9,3.4-16.9,8.5-23.5,15.3-6.7,6.6-12,14.7-15.3,23.5-3.3,8.4-5.5,18.1-6.2,32.1-.7,14.2-.8,18.7-.8,54.7s.2,40.5.8,54.6,2.9,23.8,6.2,32.1c3.4,8.9,8.6,16.9,15.3,23.5,6.6,6.7,14.7,12,23.5,15.3,8.4,3.3,18.1,5.5,32.1,6.2,14.1.6,18.6.8,54.6.8s40.5-.2,54.6-.8c14.1-.6,23.8-2.9,32.1-6.2,17.8-6.9,31.9-21,38.8-38.8,3.3-8.4,5.5-18.1,6.2-32.1.6-14.1.8-18.6.8-54.6s0-40.5-.7-54.6h0ZM240.9,186.1c-.6,12.9-2.7,19.9-4.6,24.6-4.5,11.5-13.6,20.7-25.2,25.2-4.7,1.8-11.7,4-24.6,4.6-14,.6-18.2.8-53.5.8s-39.6-.2-53.5-.8c-12.9-.6-19.9-2.7-24.6-4.6-5.7-2.1-11-5.5-15.2-9.9-4.4-4.3-7.8-9.5-9.9-15.2-1.8-4.7-4-11.7-4.6-24.6-.6-14-.8-18.2-.8-53.5s.2-39.6.8-53.5c.6-12.9,2.7-19.9,4.6-24.6,2.1-5.7,5.5-11,9.9-15.2,4.3-4.4,9.5-7.8,15.2-9.9,4.7-1.8,11.7-4,24.6-4.6,14-.6,18.2-.8,53.5-.8s39.6.2,53.5.8c12.9.6,19.9,2.7,24.6,4.6,5.7,2.1,11,5.5,15.2,9.9,4.4,4.3,7.8,9.5,9.9,15.2,1.8,4.7,4,11.7,4.6,24.6.6,14,.8,18.2.8,53.5s-.2,39.5-.8,53.5h.1Z"/>
      <path class="cls-3" d="M133,64.5c-37.6,0-68.1,30.5-68.1,68.1s30.5,68.1,68.1,68.1,68.1-30.5,68.1-68.1-30.5-68.1-68.1-68.1ZM133,176.7c-24.4,0-44.2-19.8-44.2-44.2s19.8-44.2,44.2-44.2,44.2,19.8,44.2,44.2-19.8,44.2-44.2,44.2Z"/>
      <path class="cls-3" d="M219.7,61.8c0,8.8-7.1,15.9-15.9,15.9s-15.9-7.1-15.9-15.9,7.1-15.9,15.9-15.9,15.9,7.1,15.9,15.9Z"/>
    </g>
  </g>
</svg>