<?xml version="1.0" encoding="UTF-8"?>
<svg id="Layer_1" data-name="Layer 1" xmlns="http://www.w3.org/2000/svg" version="1.1" viewBox="0 0 492.2 437.5">
  <defs>
    <style>
      .cls-1 {
        fill: #ef4581;
        stroke-width: 0px;
      }
    </style>
  </defs>
  <g id="Group_3" data-name="Group 3">
    <path id="Path_21" data-name="Path 21" class="cls-1" d="M337,307.5l155.2,124.1V104.2l-215.7,168.8c-17.9,14-43,14-60.9,0L0,104.2v327.4l155.2-124.1c2.4-1.9,5.8-1.5,7.7.9s1.5,5.8-.9,7.7L10.1,437.5h471.9l-151.9-121.5c-2.4-1.9-2.8-5.3-.9-7.7,1.9-2.4,5.3-2.8,7.7-.9,0,0,0,0,0,0h0ZM169.5,410.2h-21.9v-21.9h21.9v21.9ZM213.3,410.2h-21.9v-21.9h21.9v21.9ZM257,410.2h-21.9v-21.9h21.9v21.9ZM300.8,410.2h-21.9v-21.9h21.9v21.9ZM344.5,388.3v21.9h-21.9v-21.9h21.9Z"/>
    <path id="Path_22" data-name="Path 22" class="cls-1" d="M269.8,264.4l212-165.9H10.4l212,165.9c13.9,10.9,33.5,10.9,47.4,0h0Z"/>
    <path id="Path_24" data-name="Path 24" class="cls-1" d="M244.2,43.8c3,0,5.5-2.4,5.5-5.5V5.5c0-3-2.5-5.5-5.5-5.5-3,0-5.5,2.4-5.5,5.5v32.8c0,3,2.4,5.5,5.5,5.5h0Z"/>
    <path id="Path_25" data-name="Path 25" class="cls-1" d="M185.7,42.1c2.1,2.2,5.6,2.2,7.7,0,2.2-2.1,2.2-5.6,0-7.7,0,0,0,0,0,0l-30.9-30.9c-2.2-2.1-5.6-2.1-7.7,0-2.1,2.1-2.1,5.5,0,7.7l30.9,30.9Z"/>
    <path id="Path_26" data-name="Path 26" class="cls-1" d="M298.9,43.8c1.5,0,2.8-.6,3.9-1.6l30.9-30.9c2.1-2.2,2.1-5.6,0-7.7-2.1-2.1-5.5-2.1-7.7,0l-30.9,30.9c-2.1,2.1-2.1,5.6,0,7.7,1,1,2.4,1.6,3.9,1.6Z"/>
  </g>
</svg>