<?xml version="1.0" encoding="UTF-8"?>
<svg id="Layer_1" data-name="Layer 1" xmlns="http://www.w3.org/2000/svg" version="1.1" viewBox="0 0 470.4 492.8">
  <defs>
    <style>
      .cls-1 {
        fill: #ef4581;
        stroke-width: 0px;
      }
    </style>
  </defs>
  <path id="Path_27" data-name="Path 27" class="cls-1" d="M344.2,0C274.8,0,218.1,56.3,218.1,125.6c0,0,0,.1,0,.2.6,36.4,20,70.3,43.8,101.5s52.4,60,73.8,85.1c4,4.7,11.1,5.2,15.8,1.2.4-.4.8-.8,1.2-1.2,21.5-25,50.3-53.8,74-85.1s43.1-65.1,43.8-101.5v-.2C470.4,56.3,413.7,0,344.2,0h0ZM344.2,22.4c57.4,0,103.7,46,103.8,103.1v.2c-.6,28.4-16.7,58.5-39.2,88-19.9,26.1-43.8,51.3-64.6,74.7-20.8-23.5-44.7-48.6-64.6-74.7-22.4-29.5-38.6-59.6-39.2-88v-.2c0-57.1,46.4-103.1,103.8-103.1ZM344.2,93.4c-17.9,0-32.3,14.7-32.2,32.6s14.7,32.3,32.6,32.2c17.8,0,32.2-14.6,32.2-32.4,0-17.9-14.4-32.3-32.3-32.4,0,0-.2,0-.3,0ZM140.9,94c-1.1,0-2.2.2-3.3.5L7.9,134.6C3.2,136,0,140.4,0,145.2v336.3c0,6.2,5,11.2,11.2,11.2,1.1,0,2.2-.2,3.3-.5l126.3-39,126.4,39c2.2.7,4.5.7,6.7,0l129.7-40.1c4.7-1.5,7.9-5.8,7.9-10.7v-119.5c0-6.2-5-11.2-11.2-11.2-6.2,0-11.2,5-11.2,11.2h0v111.3l-107.3,32.9v-186.5c0-6.2-5-11.2-11.2-11.2s-11.2,5-11.2,11.2h0v186.6l-107.3-32.9V153.7c0-6.2-5-11.2-11.2-11.2-6.2,0-11.2,5-11.2,11.2h0v279.7l-107.3,32.9V153.5l118.5-36.6,43.1,13.3c5.8,2.2,12.2-.8,14.4-6.5,2.2-5.8-.8-12.2-6.5-14.4-.4-.2-.8-.3-1.2-.4l-46.4-14.3c-1.1-.3-2.2-.5-3.3-.5h0Z"/>
</svg>