<?xml version="1.0" encoding="UTF-8"?>
<svg id="Layer_1" data-name="Layer 1" xmlns="http://www.w3.org/2000/svg" version="1.1" viewBox="0 0 519.8 523.6">
  <defs>
    <style>
      .cls-1 {
        fill: #ef4581;
        stroke-width: 0px;
      }
    </style>
  </defs>
  <path id="Path_20" data-name="Path 20" class="cls-1" d="M367.7,361.5c-7-6.9-16.6-10.5-26.4-9.9h0c-42.9,1.8-56.6,35.6-59.6,45.4-141.3-46.3-154.3-154.6-154.3-154.6l27.4-38.4-27.4,38.4c28-11.5,38.8-32.3,43-47,2.2-5.4,3.1-11.2,2.6-16.9h0c-.6-8.1-4.2-15.7-9.9-21.5l-69-69c-13.7-13.7-36.5-13.3-50.7,1l-19.4,19.6.5.5c-6.7,8.6-12.1,18.1-16,28.3-3.6,9.2-6,18.8-7.1,28.7-9.1,75.5,25.4,144.5,119.1,238.2,129.5,129.4,233.8,119.7,238.3,119.2,9.9-1.2,19.5-3.6,28.7-7.2,10.1-3.9,19.6-9.3,28.2-16l.4.4,19.7-19.3c14.2-14.2,14.6-37,.9-50.8l-69-69ZM173.1,178.8h0ZM171.7,190.2s0,0,0,0c0,0,0,0,0,0ZM172,188.6l1.1-9.3c0,0,0-.1,0-.2,0,0,0,.1,0,.2l-1.1,9.3ZM494,324.5c-14.2,0-25.8-11.6-25.8-25.8,0-136.2-110.8-247.1-247.1-247.1s-25.8-11.6-25.8-25.8S206.9,0,221.1,0c165,0,298.7,133.7,298.7,298.7,0,14.2-11.5,25.8-25.8,25.8h0ZM392.8,312.5c-14.2,0-25.8-11.6-25.8-25.8,0-73.8-60-133.9-133.9-133.9s-25.8-11.6-25.8-25.8,11.6-25.8,25.8-25.8c102.3,0,185.5,83.2,185.5,185.5s-11.6,25.8-25.8,25.8h0Z"/>
</svg>