<?xml version="1.0" encoding="UTF-8"?>
<svg id="Layer_1" data-name="Layer 1" xmlns="http://www.w3.org/2000/svg" version="1.1" viewBox="0 0 138 117">
  <defs>
    <style>
      .cls-1 {
        fill: #f7a2c0;
        stroke-width: 0px;
      }
    </style>
  </defs>
  <path class="cls-1" d="M88,47.5c-14-8.6-24.2-26.2-27-47.5-2.9,21.3-13.1,38.9-27,47.5-2.7,1.7-9.5,4.3-9.5,4.3,0,0,6.8,2.6,9.5,4.3,14,8.6,24.2,26.2,27,47.5,2.9-21.3,13.1-38.9,27-47.5,2.7-1.7,9.5-4.3,9.5-4.3,0,0-6.8-2.6-9.5-4.3Z"/>
  <path class="cls-1" d="M21,79.9h-1.9v-1.9s0-10.5-3.3-10.5-3.3,10.5-3.3,10.5v1.9h-1.9s-10.5,0-10.5,3.3,10.5,3.3,10.5,3.3h1.9v1.9s0,10.5,3.3,10.5,3.3-10.5,3.3-10.5v-1.9h1.9s10.5,0,10.5-3.3-10.5-3.3-10.5-3.3Z"/>
  <path class="cls-1" d="M131.7,84.5c-9.1-4.9-15.8-15-17.7-27.1-1.9,12.1-8.5,22.2-17.7,27.1-1.8,1-6.2,2.4-6.2,2.4,0,0,4.4,1.5,6.2,2.4,9.1,4.9,15.8,15,17.7,27.1,1.9-12.1,8.5-22.2,17.7-27.1,1.8-1,6.2-2.4,6.2-2.4,0,0-4.4-1.5-6.2-2.4Z"/>
  <path class="cls-1" d="M119.3,31c0,2.9-2.4,5.3-5.3,5.3s-5.3-2.4-5.3-5.3,2.4-5.3,5.3-5.3,5.3,2.4,5.3,5.3Z"/>
</svg>