<?xml version="1.0" encoding="UTF-8"?>
<svg id="Layer_1" data-name="Layer 1" xmlns="http://www.w3.org/2000/svg" version="1.1" viewBox="0 0 111 115">
  <defs>
    <style>
      .cls-1 {
        fill: #ef4581;
        stroke-width: 0px;
      }
    </style>
  </defs>
  <path class="cls-1" d="M83.4,52.7C65.1,43.2,51.7,23.6,47.9,0c-3.8,23.6-17.1,43.2-35.5,52.7-3.6,1.9-12.4,4.7-12.4,4.7,0,0,8.9,2.9,12.4,4.7,18.3,9.6,31.7,29.1,35.5,52.7,3.8-23.6,17.1-43.2,35.5-52.7,3.6-1.9,12.4-4.7,12.4-4.7,0,0-8.9-2.9-12.4-4.7Z"/>
  <path class="cls-1" d="M107,16.5c-5.7-3-9.9-9.1-11.1-16.5-1.2,7.4-5.4,13.5-11.1,16.5-1.1.6-3.9,1.5-3.9,1.5,0,0,2.8.9,3.9,1.5,5.7,3,9.9,9.1,11.1,16.5,1.2-7.4,5.4-13.5,11.1-16.5,1.1-.6,3.9-1.5,3.9-1.5,0,0-2.8-.9-3.9-1.5Z"/>
</svg>